<?xml version="1.0" standalone="no"?>
<!DOCTYPE svg PUBLIC "-//W3C//DTD SVG 1.1//EN" "http://www.w3.org/Graphics/SVG/1.1/DTD/svg11.dtd">
<svg width="900" height="500" version="1.1" xmlns="http://www.w3.org/2000/svg" xmlns:xlink="http://www.w3.org/1999/xlink"><g class="table" transform="translate(10, 10)"><g class="table border"><line x1="0" y1="0" x2="0.8896E3" y2="0" stroke-width="1" style="stroke:black;"/><line x1="0.8896E3" y1="0" x2="0.8896E3" y2="0.2304E3" stroke-width="1" style="stroke:black;"/><line x1="0.8896E3" y1="0.2304E3" x2="0" y2="0.2304E3" stroke-width="1" style="stroke:black;"/><line x1="0" y1="0.2304E3" x2="0" y2="0" stroke-width="1" style="stroke:black;"/></g><g class="row" transform="translate(0, 0)"><g class="row border"><line x1="0" y1="0" x2="0.8896E3" y2="0" stroke-width="1" style="stroke:black;"/><line x1="0.8896E3" y1="0" x2="0.8896E3" y2="0.72E2" stroke-width="1" style="stroke:black;"/><line x1="0.8896E3" y1="0.72E2" x2="0" y2="0.72E2" stroke-width="1" style="stroke:black;"/><line x1="0" y1="0.72E2" x2="0" y2="0" stroke-width="1" style="stroke:black;"/></g><g class="cell" transform="translate(0, 0)"><g class="cell border"><line x1="0" y1="0" x2="0.4896E3" y2="0" stroke-width="1" style="stroke:black;"/><line x1="0.4896E3" y1="0" x2="0.4896E3" y2="0.144E2" stroke-width="1" style="stroke:black;"/><line x1="0.4896E3" y1="0.144E2" x2="0" y2="0.144E2" stroke-width="1" style="stroke:black;"/><line x1="0" y1="0.144E2" x2="0" y2="0" stroke-width="1" style="stroke:black;"/></g><g class="textbox"><text x="0" y="0.11088E2" style="fill:black;font-family:Courier New;text-anchor:start;font-weight:400;font-size:12px;">A text with unset width will span as long as needed</text></g></g><g class="cell" transform="translate(0.4896E3, 0)"><g class="cell border"><line x1="0" y1="0" x2="200" y2="0" stroke-width="1" style="stroke:black;"/><line x1="200" y1="0" x2="200" y2="0.576E2" stroke-width="1" style="stroke:black;"/><line x1="200" y1="0.576E2" x2="0" y2="0.576E2" stroke-width="1" style="stroke:black;"/><line x1="0" y1="0.576E2" x2="0" y2="0" stroke-width="1" style="stroke:black;"/></g><g class="textbox"><text x="0" y="0.1108800000000001E2" style="fill:black;font-family:Courier New;text-anchor:start;font-weight:400;font-size:12px;">A text with fixed</text><text x="0" y="0.2548800000000001E2" style="fill:black;font-family:Courier New;text-anchor:start;font-weight:400;font-size:12px;">width will wrap on a</text><text x="0" y="0.3988800000000001E2" style="fill:black;font-family:Courier New;text-anchor:start;font-weight:400;font-size:12px;">delimiter. Unneeded</text><text x="0" y="0.5428800000000001E2" style="fill:black;font-family:Courier New;text-anchor:start;font-weight:400;font-size:12px;">spacing is removed.</text></g></g><g class="cell" transform="translate(0.6896E3, 0)"><g class="cell border"><line x1="0" y1="0" x2="100" y2="0" stroke-width="1" style="stroke:black;"/><line x1="100" y1="0" x2="100" y2="0.72E2" stroke-width="1" style="stroke:black;"/><line x1="100" y1="0.72E2" x2="0" y2="0.72E2" stroke-width="1" style="stroke:black;"/><line x1="0" y1="0.72E2" x2="0" y2="0" stroke-width="1" style="stroke:black;"/></g><g class="textbox"><text x="0" y="0.11088E2" style="fill:black;font-family:Courier New;text-anchor:start;font-weight:400;font-size:12px;">VeryLongWo</text><text x="0" y="0.25488E2" style="fill:black;font-family:Courier New;text-anchor:start;font-weight:400;font-size:12px;">rdsAreWrap</text><text x="0" y="0.39888E2" style="fill:black;font-family:Courier New;text-anchor:start;font-weight:400;font-size:12px;">pedOnAnyCh</text><text x="0" y="0.54288E2" style="fill:black;font-family:Courier New;text-anchor:start;font-weight:400;font-size:12px;">aracterByD</text><text x="0" y="0.68688E2" style="fill:black;font-family:Courier New;text-anchor:start;font-weight:400;font-size:12px;">efault</text></g></g></g><g class="row" transform="translate(0, 0.72E2)"><g class="row border"><line x1="0" y1="0" x2="0.8896E3" y2="0" stroke-width="1" style="stroke:black;"/><line x1="0.8896E3" y1="0" x2="0.8896E3" y2="0.1584E3" stroke-width="1" style="stroke:black;"/><line x1="0.8896E3" y1="0.1584E3" x2="0" y2="0.1584E3" stroke-width="1" style="stroke:black;"/><line x1="0" y1="0.1584E3" x2="0" y2="0" stroke-width="1" style="stroke:black;"/></g><g class="cell" transform="translate(0, 0)"><g class="cell border"><line x1="0" y1="0" x2="100" y2="0" stroke-width="1" style="stroke:black;"/><line x1="100" y1="0" x2="100" y2="0.1584E3" stroke-width="1" style="stroke:black;"/><line x1="100" y1="0.1584E3" x2="0" y2="0.1584E3" stroke-width="1" style="stroke:black;"/><line x1="0" y1="0.1584E3" x2="0" y2="0" stroke-width="1" style="stroke:black;"/></g><g class="textbox"><text x="0" y="0.11088E2" style="fill:black;font-family:Courier New;text-anchor:start;font-weight:400;font-size:12px;">A single</text><text x="0" y="0.25488E2" style="fill:black;font-family:Courier New;text-anchor:start;font-weight:400;font-size:12px;">delimiter</text><text x="0" y="0.39888E2" style="fill:black;font-family:Courier New;text-anchor:start;font-weight:400;font-size:12px;">following</text><text x="0" y="0.54288E2" style="fill:black;font-family:Courier New;text-anchor:start;font-weight:400;font-size:12px;">a word is</text><text x="0" y="0.68688E2" style="fill:black;font-family:Courier New;text-anchor:start;font-weight:400;font-size:12px;">not</text><text x="0" y="0.8308799999999999E2" style="fill:black;font-family:Courier New;text-anchor:start;font-weight:400;font-size:12px;">wrapped on</text><text x="0" y="0.9748799999999999E2" style="fill:black;font-family:Courier New;text-anchor:start;font-weight:400;font-size:12px;">its own.</text><text x="0" y="0.111888E3" style="fill:black;font-family:Courier New;text-anchor:start;font-weight:400;font-size:12px;">Example:</text><text x="0" y="0.126288E3" style="fill:black;font-family:Courier New;text-anchor:start;font-weight:400;font-size:12px;">wrap this.</text><text x="0" y="0.140688E3" style="fill:black;font-family:Courier New;text-anchor:start;font-weight:400;font-size:12px;">wrapp</text><text x="0" y="0.155088E3" style="fill:black;font-family:Courier New;text-anchor:start;font-weight:400;font-size:12px;">this.</text></g></g><g class="cell" transform="translate(0.4896E3, 0)"><g class="cell border"><line x1="0" y1="0" x2="200" y2="0" stroke-width="1" style="stroke:black;"/><line x1="200" y1="0" x2="200" y2="0.144E2" stroke-width="1" style="stroke:black;"/><line x1="200" y1="0.144E2" x2="0" y2="0.144E2" stroke-width="1" style="stroke:black;"/><line x1="0" y1="0.144E2" x2="0" y2="0" stroke-width="1" style="stroke:black;"/></g><g class="textbox"><text x="0" y="0.11088E2" style="fill:black;font-family:Courier New;text-anchor:start;font-weight:400;font-size:12px;">Truncation is als...</text></g></g><g class="cell" transform="translate(0.6896E3, 0)"><g class="cell border"><line x1="0" y1="0" x2="200" y2="0" stroke-width="1" style="stroke:black;"/><line x1="200" y1="0" x2="200" y2="0.144E2" stroke-width="1" style="stroke:black;"/><line x1="200" y1="0.144E2" x2="0" y2="0.144E2" stroke-width="1" style="stroke:black;"/><line x1="0" y1="0.144E2" x2="0" y2="0" stroke-width="1" style="stroke:black;"/></g><g class="textbox"><text x="0" y="0.11088E2" style="fill:black;font-family:Courier New;text-anchor:start;font-weight:400;font-size:12px;">Overflow will ignore width restrictions without affecting the table structure</text></g></g></g></g></svg>