<?xml version="1.0" standalone="no"?>
<!DOCTYPE svg PUBLIC "-//W3C//DTD SVG 1.1//EN" "http://www.w3.org/Graphics/SVG/1.1/DTD/svg11.dtd">
<svg width="600" height="600" version="1.1" xmlns="http://www.w3.org/2000/svg" xmlns:xlink="http://www.w3.org/1999/xlink"><g class="table"><g class="table border"><line x1="0" y1="0" x2="0.480000000000000000035E3" y2="0" stroke-width="1" style="stroke:black;opacity:0;"/><line x1="0.480000000000000000035E3" y1="0" x2="0.480000000000000000035E3" y2="320" stroke-width="1" style="stroke:black;opacity:0;"/><line x1="0.480000000000000000035E3" y1="320" x2="0" y2="320" stroke-width="1" style="stroke:black;opacity:0;"/><line x1="0" y1="320" x2="0" y2="0" stroke-width="1" style="stroke:black;opacity:0;"/></g><g class="row" transform="translate(0, 0)"><g class="row border"><line x1="0" y1="0" x2="0.480000000000000000035E3" y2="0" stroke-width="1" style="stroke:black;opacity:0;"/><line x1="0.480000000000000000035E3" y1="0" x2="0.480000000000000000035E3" y2="160" stroke-width="1" style="stroke:black;opacity:0;"/><line x1="0.480000000000000000035E3" y1="160" x2="0" y2="160" stroke-width="1" style="stroke:black;opacity:0;"/><line x1="0" y1="160" x2="0" y2="0" stroke-width="1" style="stroke:black;opacity:0;"/></g><g class="cell" transform="translate(0, 0)"><g class="cell border"><line x1="0" y1="0" x2="160" y2="0" stroke-width="1" style="stroke:black;"/><line x1="160" y1="0" x2="160" y2="160" stroke-width="1" style="stroke:black;"/><line x1="160" y1="160" x2="0" y2="160" stroke-width="1" style="stroke:black;"/><line x1="0" y1="160" x2="0" y2="0" stroke-width="1" style="stroke:black;"/></g><g class="textbox"><g class="textbox border"><line x1="0" y1="0" x2="0.16E3" y2="0" stroke-width="1" style="stroke:black;opacity:0;"/><line x1="0.16E3" y1="0" x2="0.16E3" y2="0.16E3" stroke-width="1" style="stroke:black;opacity:0;"/><line x1="0.16E3" y1="0.16E3" x2="0" y2="0.16E3" stroke-width="1" style="stroke:black;opacity:0;"/><line x1="0" y1="0.16E3" x2="0" y2="0" stroke-width="1" style="stroke:black;opacity:0;"/></g><text x="0.8E2" y="0.76688E2" style="fill:red;font-family:Courier New;text-anchor:middle;font-weight:bold;font-size:12pt;">this is some</text><text x="0.8E2" y="0.91088E2" style="fill:red;font-family:Courier New;text-anchor:middle;font-weight:bold;font-size:12pt;">text</text></g></g><g class="cell" transform="translate(160, 0)"><g class="cell border"><line x1="0" y1="0" x2="0.160000000000000000035E3" y2="0" stroke-width="1" style="stroke:black;"/><line x1="0.160000000000000000035E3" y1="0" x2="0.160000000000000000035E3" y2="160" stroke-width="1" style="stroke:black;"/><line x1="0.160000000000000000035E3" y1="160" x2="0" y2="160" stroke-width="1" style="stroke:black;"/><line x1="0" y1="160" x2="0" y2="0" stroke-width="1" style="stroke:black;"/></g><g class="polyline"><polyline points="5,40 400,80" style="stroke:red;fill:none;stroke-width:6;stroke-linecap:butt;stroke-linejoin:miter;" transform="translate(0, 0)scale(0.399002493765586035E0, 0.399002493765586035E0)"/></g></g><g class="cell" transform="translate(0.320000000000000000035E3, 0)"><g class="cell border"><line x1="0" y1="0" x2="160" y2="0" stroke-width="1" style="stroke:black;"/><line x1="160" y1="0" x2="160" y2="160" stroke-width="1" style="stroke:black;"/><line x1="160" y1="160" x2="0" y2="160" stroke-width="1" style="stroke:black;"/><line x1="0" y1="160" x2="0" y2="0" stroke-width="1" style="stroke:black;"/></g><g class="circle"><circle cx="10" cy="120" r="30" style="stroke:black;fill:green;stroke-width:1;" transform="translate(70, 0)scale(1, 1)"/></g></g></g><g class="row" transform="translate(0, 160)"><g class="row border"><line x1="0" y1="0" x2="0.480000000000000000035E3" y2="0" stroke-width="1" style="stroke:black;opacity:0;"/><line x1="0.480000000000000000035E3" y1="0" x2="0.480000000000000000035E3" y2="160" stroke-width="1" style="stroke:black;opacity:0;"/><line x1="0.480000000000000000035E3" y1="160" x2="0" y2="160" stroke-width="1" style="stroke:black;opacity:0;"/><line x1="0" y1="160" x2="0" y2="0" stroke-width="1" style="stroke:black;opacity:0;"/></g><g class="cell" transform="translate(0, 0)"><g class="cell border"><line x1="0" y1="0" x2="160" y2="0" stroke-width="1" style="stroke:black;"/><line x1="160" y1="0" x2="160" y2="160" stroke-width="1" style="stroke:black;"/><line x1="160" y1="160" x2="0" y2="160" stroke-width="1" style="stroke:black;"/><line x1="0" y1="160" x2="0" y2="0" stroke-width="1" style="stroke:black;"/></g><g class="polyline"><polyline points="10,10 40,120 150,150 10,150 10,10" style="stroke:blue;fill:yellow;stroke-width:4;stroke-linecap:round;stroke-linejoin:miter;stroke-dasharray:0, 8;" transform="translate(0, 0)scale(1, 1)"/></g></g><g class="cell" transform="translate(160, 0)"><g class="cell border"><line x1="0" y1="0" x2="160" y2="0" stroke-width="1" style="stroke:black;"/><line x1="160" y1="0" x2="160" y2="160" stroke-width="1" style="stroke:black;"/><line x1="160" y1="160" x2="0" y2="160" stroke-width="1" style="stroke:black;"/><line x1="0" y1="160" x2="0" y2="0" stroke-width="1" style="stroke:black;"/></g><g class="multi_polyline"><g transform="translate(0, 0)scale(1, 1)"><g class="polyline"><polyline points="20,20 80,40 20,60" style="stroke:blue;fill:none;stroke-width:2;stroke-linecap:butt;stroke-linejoin:miter;" transform="translate(0, 0)scale(1, 1)"/></g><g class="polyline"><polyline points="120,80 140,100 80,80" style="stroke:blue;fill:none;stroke-width:2;stroke-linecap:butt;stroke-linejoin:miter;" transform="translate(0, 0)scale(1, 1)"/></g></g></g></g><g class="cell" transform="translate(0.320000000000000000035E3, 0)"><g class="cell border"><line x1="0" y1="0" x2="160" y2="0" stroke-width="1" style="stroke:black;"/><line x1="160" y1="0" x2="160" y2="160" stroke-width="1" style="stroke:black;"/><line x1="160" y1="160" x2="0" y2="160" stroke-width="1" style="stroke:black;"/><line x1="0" y1="160" x2="0" y2="0" stroke-width="1" style="stroke:black;"/></g><g class="path" transform="scale(0.18, 0.18)"><path d="M859.6,53.59a20.3,20.3,0,1,0,20.29,20.3"/></g></g></g></g></svg>