<?xml version="1.0" standalone="no"?>
<!DOCTYPE svg PUBLIC "-//W3C//DTD SVG 1.1//EN" "http://www.w3.org/Graphics/SVG/1.1/DTD/svg11.dtd">
<svg width="700" height="1600" version="1.1" xmlns="http://www.w3.org/2000/svg" xmlns:xlink="http://www.w3.org/1999/xlink"><g class="table" transform="translate(10, 10)"><g class="table border"><line x1="0" y1="0" x2="600" y2="0" stroke-width="1" style="stroke:black;"/><line x1="600" y1="0" x2="600" y2="0.104000000000000000002E4" stroke-width="1" style="stroke:black;"/><line x1="600" y1="0.104000000000000000002E4" x2="0" y2="0.104000000000000000002E4" stroke-width="1" style="stroke:black;"/><line x1="0" y1="0.104000000000000000002E4" x2="0" y2="0" stroke-width="1" style="stroke:black;"/></g><g class="row" transform="translate(0, 0)"><g class="cell" transform="translate(0, 0)"><g class="cell border"><line x1="0" y1="0" x2="200" y2="0" stroke-width="2" style="stroke:black;"/><line x1="200" y1="0" x2="200" y2="60" stroke-width="2" style="stroke:black;"/><line x1="200" y1="60" x2="0" y2="60" stroke-width="2" style="stroke:black;"/><line x1="0" y1="60" x2="0" y2="0" stroke-width="2" style="stroke:black;"/></g><g class="textbox"><text x="0.1E3" y="0.56688E2" style="fill:black;font-family:Arial Unicode MS;text-anchor:middle;font-weight:400;font-size:12pt;">{}</text></g></g><g class="cell" transform="translate(200, 0)"><g class="cell border"><line x1="0" y1="0" x2="200" y2="0" stroke-width="2" style="stroke:black;"/><line x1="200" y1="0" x2="200" y2="60" stroke-width="2" style="stroke:black;"/><line x1="200" y1="60" x2="0" y2="60" stroke-width="2" style="stroke:black;"/><line x1="0" y1="60" x2="0" y2="0" stroke-width="2" style="stroke:black;"/></g><g class="textbox"><text x="0.1E3" y="0.42288E2" style="fill:black;font-family:Arial Unicode MS;text-anchor:middle;font-weight:400;font-size:12pt;">{:x_reposition=&gt;"center",</text><text x="0.1E3" y="0.56688E2" style="fill:black;font-family:Arial Unicode MS;text-anchor:middle;font-weight:400;font-size:12pt;">:y_reposition=&gt;"middle"}</text></g></g><g class="cell" transform="translate(400, 0)"><g class="cell border"><line x1="0" y1="0" x2="200" y2="0" stroke-width="2" style="stroke:black;"/><line x1="200" y1="0" x2="200" y2="60" stroke-width="2" style="stroke:black;"/><line x1="200" y1="60" x2="0" y2="60" stroke-width="2" style="stroke:black;"/><line x1="0" y1="60" x2="0" y2="0" stroke-width="2" style="stroke:black;"/></g><g class="textbox"><text x="0.1E3" y="0.42288E2" style="fill:black;font-family:Arial Unicode MS;text-anchor:middle;font-weight:400;font-size:12pt;">{:x_reposition=&gt;"right", :</text><text x="0.1E3" y="0.56688E2" style="fill:black;font-family:Arial Unicode MS;text-anchor:middle;font-weight:400;font-size:12pt;">y_reposition=&gt;"bottom"}</text></g></g></g><g class="row" transform="translate(0, 60)"><g class="cell" transform="translate(0, 0)"><g class="cell border"><line x1="0" y1="0" x2="200" y2="0" stroke-width="1" style="stroke:black;"/><line x1="200" y1="0" x2="200" y2="200" stroke-width="1" style="stroke:black;"/><line x1="200" y1="200" x2="0" y2="200" stroke-width="1" style="stroke:black;"/><line x1="0" y1="200" x2="0" y2="0" stroke-width="1" style="stroke:black;"/></g><g class="polyline"><polyline points="0,0 5,50 10,0 15,50 20,0 25,50" style="stroke:black;fill:none;stroke-width:1;stroke-linecap:butt;stroke-linejoin:miter;" transform="translate(0, 0)scale(1, 1)"/></g></g><g class="cell" transform="translate(200, 0)"><g class="cell border"><line x1="0" y1="0" x2="200" y2="0" stroke-width="1" style="stroke:black;"/><line x1="200" y1="0" x2="200" y2="200" stroke-width="1" style="stroke:black;"/><line x1="200" y1="200" x2="0" y2="200" stroke-width="1" style="stroke:black;"/><line x1="0" y1="200" x2="0" y2="0" stroke-width="1" style="stroke:black;"/></g><g class="polyline"><polyline points="0,0 5,50 10,0 15,50 20,0 25,50" style="stroke:black;fill:none;stroke-width:1;stroke-linecap:butt;stroke-linejoin:miter;" transform="translate(0.875E2, 0.75E2)scale(1, 1)"/></g></g><g class="cell" transform="translate(400, 0)"><g class="cell border"><line x1="0" y1="0" x2="200" y2="0" stroke-width="1" style="stroke:black;"/><line x1="200" y1="0" x2="200" y2="200" stroke-width="1" style="stroke:black;"/><line x1="200" y1="200" x2="0" y2="200" stroke-width="1" style="stroke:black;"/><line x1="0" y1="200" x2="0" y2="0" stroke-width="1" style="stroke:black;"/></g><g class="polyline"><polyline points="0,0 5,50 10,0 15,50 20,0 25,50" style="stroke:black;fill:none;stroke-width:1;stroke-linecap:butt;stroke-linejoin:miter;" transform="translate(0.1745E3, 0.1495E3)scale(1, 1)"/></g></g></g><g class="row" transform="translate(0, 260)"><g class="cell" transform="translate(0, 0)"><g class="cell border"><line x1="0" y1="0" x2="200" y2="0" stroke-width="2" style="stroke:black;"/><line x1="200" y1="0" x2="200" y2="60" stroke-width="2" style="stroke:black;"/><line x1="200" y1="60" x2="0" y2="60" stroke-width="2" style="stroke:black;"/><line x1="0" y1="60" x2="0" y2="0" stroke-width="2" style="stroke:black;"/></g><g class="textbox"><text x="0.1E3" y="0.56688E2" style="fill:black;font-family:Arial Unicode MS;text-anchor:middle;font-weight:400;font-size:12pt;">{:expand=&gt;true}</text></g></g><g class="cell" transform="translate(200, 0)"><g class="cell border"><line x1="0" y1="0" x2="200" y2="0" stroke-width="2" style="stroke:black;"/><line x1="200" y1="0" x2="200" y2="60" stroke-width="2" style="stroke:black;"/><line x1="200" y1="60" x2="0" y2="60" stroke-width="2" style="stroke:black;"/><line x1="0" y1="60" x2="0" y2="0" stroke-width="2" style="stroke:black;"/></g><g class="textbox"><text x="0.1E3" y="0.42288E2" style="fill:black;font-family:Arial Unicode MS;text-anchor:middle;font-weight:400;font-size:12pt;">{:expand=&gt;true, :</text><text x="0.1E3" y="0.56688E2" style="fill:black;font-family:Arial Unicode MS;text-anchor:middle;font-weight:400;font-size:12pt;">scale_size=&gt;false}</text></g></g><g class="cell" transform="translate(400, 0)"><g class="cell border"><line x1="0" y1="0" x2="200" y2="0" stroke-width="2" style="stroke:black;"/><line x1="200" y1="0" x2="200" y2="60" stroke-width="2" style="stroke:black;"/><line x1="200" y1="60" x2="0" y2="60" stroke-width="2" style="stroke:black;"/><line x1="0" y1="60" x2="0" y2="0" stroke-width="2" style="stroke:black;"/></g><g class="textbox"><text x="0.1E3" y="0.56688E2" style="fill:black;font-family:Arial Unicode MS;text-anchor:middle;font-weight:400;font-size:12pt;">{:scale=&gt;3}</text></g></g></g><g class="row" transform="translate(0, 320)"><g class="cell" transform="translate(0, 0)"><g class="cell border"><line x1="0" y1="0" x2="200" y2="0" stroke-width="1" style="stroke:black;"/><line x1="200" y1="0" x2="200" y2="200" stroke-width="1" style="stroke:black;"/><line x1="200" y1="200" x2="0" y2="200" stroke-width="1" style="stroke:black;"/><line x1="0" y1="200" x2="0" y2="0" stroke-width="1" style="stroke:black;"/></g><g class="polyline"><polyline points="0,0 5,50 10,0 15,50 20,0 25,50" style="stroke:black;fill:none;stroke-width:1;stroke-linecap:butt;stroke-linejoin:miter;" transform="translate(0, 0)scale(0.3921568627450980392E1, 0.3921568627450980392E1)"/></g></g><g class="cell" transform="translate(200, 0)"><g class="cell border"><line x1="0" y1="0" x2="200" y2="0" stroke-width="1" style="stroke:black;"/><line x1="200" y1="0" x2="200" y2="200" stroke-width="1" style="stroke:black;"/><line x1="200" y1="200" x2="0" y2="200" stroke-width="1" style="stroke:black;"/><line x1="0" y1="200" x2="0" y2="0" stroke-width="1" style="stroke:black;"/></g><g class="polyline"><polyline points="0,0 5,50 10,0 15,50 20,0 25,50" style="stroke:black;fill:none;stroke-width:0.255000000000000000010200001E0;stroke-linecap:butt;stroke-linejoin:miter;" transform="translate(0, 0)scale(0.3921568627450980392E1, 0.3921568627450980392E1)"/></g></g><g class="cell" transform="translate(400, 0)"><g class="cell border"><line x1="0" y1="0" x2="200" y2="0" stroke-width="1" style="stroke:black;"/><line x1="200" y1="0" x2="200" y2="200" stroke-width="1" style="stroke:black;"/><line x1="200" y1="200" x2="0" y2="200" stroke-width="1" style="stroke:black;"/><line x1="0" y1="200" x2="0" y2="0" stroke-width="1" style="stroke:black;"/></g><g class="polyline"><polyline points="0,0 5,50 10,0 15,50 20,0 25,50" style="stroke:black;fill:none;stroke-width:1;stroke-linecap:butt;stroke-linejoin:miter;" transform="translate(0, 0)scale(3, 3)"/></g></g></g><g class="row" transform="translate(0, 520)"><g class="cell" transform="translate(0, 0)"><g class="cell border"><line x1="0" y1="0" x2="200" y2="0" stroke-width="2" style="stroke:black;"/><line x1="200" y1="0" x2="200" y2="60" stroke-width="2" style="stroke:black;"/><line x1="200" y1="60" x2="0" y2="60" stroke-width="2" style="stroke:black;"/><line x1="0" y1="60" x2="0" y2="0" stroke-width="2" style="stroke:black;"/></g><g class="textbox"><text x="0.1E3" y="0.42288E2" style="fill:black;font-family:Arial Unicode MS;text-anchor:middle;font-weight:400;font-size:12pt;">{:expand=&gt;true, :dotspace=</text><text x="0.1E3" y="0.56688E2" style="fill:black;font-family:Arial Unicode MS;text-anchor:middle;font-weight:400;font-size:12pt;">&gt;2}</text></g></g><g class="cell" transform="translate(200, 0)"><g class="cell border"><line x1="0" y1="0" x2="200" y2="0" stroke-width="2" style="stroke:black;"/><line x1="200" y1="0" x2="200" y2="60" stroke-width="2" style="stroke:black;"/><line x1="200" y1="60" x2="0" y2="60" stroke-width="2" style="stroke:black;"/><line x1="0" y1="60" x2="0" y2="0" stroke-width="2" style="stroke:black;"/></g><g class="textbox"><text x="0.1E3" y="0.42288E2" style="fill:black;font-family:Arial Unicode MS;text-anchor:middle;font-weight:400;font-size:12pt;">{:expand=&gt;true, :dotspace=</text><text x="0.1E3" y="0.56688E2" style="fill:black;font-family:Arial Unicode MS;text-anchor:middle;font-weight:400;font-size:12pt;">&gt;2, :linecap=&gt;"round"}</text></g></g><g class="cell" transform="translate(400, 0)"><g class="cell border"><line x1="0" y1="0" x2="200" y2="0" stroke-width="2" style="stroke:black;"/><line x1="200" y1="0" x2="200" y2="60" stroke-width="2" style="stroke:black;"/><line x1="200" y1="60" x2="0" y2="60" stroke-width="2" style="stroke:black;"/><line x1="0" y1="60" x2="0" y2="0" stroke-width="2" style="stroke:black;"/></g><g class="textbox"><text x="0.1E3" y="0.42288E2" style="fill:black;font-family:Arial Unicode MS;text-anchor:middle;font-weight:400;font-size:12pt;">{:expand=&gt;true, :dotspace=</text><text x="0.1E3" y="0.56688E2" style="fill:black;font-family:Arial Unicode MS;text-anchor:middle;font-weight:400;font-size:12pt;">&gt;15, :linecap=&gt;"round"}</text></g></g></g><g class="row" transform="translate(0, 580)"><g class="cell" transform="translate(0, 0)"><g class="cell border"><line x1="0" y1="0" x2="200" y2="0" stroke-width="1" style="stroke:black;"/><line x1="200" y1="0" x2="200" y2="200" stroke-width="1" style="stroke:black;"/><line x1="200" y1="200" x2="0" y2="200" stroke-width="1" style="stroke:black;"/><line x1="0" y1="200" x2="0" y2="0" stroke-width="1" style="stroke:black;"/></g><g class="polyline"><polyline points="0,0 5,50 10,0 15,50 20,0 25,50" style="stroke:black;fill:none;stroke-width:1;stroke-linecap:butt;stroke-linejoin:miter;stroke-dasharray:1, 2;" transform="translate(0, 0)scale(0.3921568627450980392E1, 0.3921568627450980392E1)"/></g></g><g class="cell" transform="translate(200, 0)"><g class="cell border"><line x1="0" y1="0" x2="200" y2="0" stroke-width="1" style="stroke:black;"/><line x1="200" y1="0" x2="200" y2="200" stroke-width="1" style="stroke:black;"/><line x1="200" y1="200" x2="0" y2="200" stroke-width="1" style="stroke:black;"/><line x1="0" y1="200" x2="0" y2="0" stroke-width="1" style="stroke:black;"/></g><g class="polyline"><polyline points="0,0 5,50 10,0 15,50 20,0 25,50" style="stroke:black;fill:none;stroke-width:1;stroke-linecap:round;stroke-linejoin:miter;stroke-dasharray:0, 2;" transform="translate(0, 0)scale(0.3921568627450980392E1, 0.3921568627450980392E1)"/></g></g><g class="cell" transform="translate(400, 0)"><g class="cell border"><line x1="0" y1="0" x2="200" y2="0" stroke-width="1" style="stroke:black;"/><line x1="200" y1="0" x2="200" y2="200" stroke-width="1" style="stroke:black;"/><line x1="200" y1="200" x2="0" y2="200" stroke-width="1" style="stroke:black;"/><line x1="0" y1="200" x2="0" y2="0" stroke-width="1" style="stroke:black;"/></g><g class="polyline"><polyline points="0,0 5,50 10,0 15,50 20,0 25,50" style="stroke:black;fill:none;stroke-width:1;stroke-linecap:round;stroke-linejoin:miter;stroke-dasharray:0, 15;" transform="translate(0, 0)scale(0.3921568627450980392E1, 0.3921568627450980392E1)"/></g></g></g><g class="row" transform="translate(0, 780)"><g class="cell" transform="translate(0, 0)"><g class="cell border"><line x1="0" y1="0" x2="200" y2="0" stroke-width="2" style="stroke:black;"/><line x1="200" y1="0" x2="200" y2="60" stroke-width="2" style="stroke:black;"/><line x1="200" y1="60" x2="0" y2="60" stroke-width="2" style="stroke:black;"/><line x1="0" y1="60" x2="0" y2="0" stroke-width="2" style="stroke:black;"/></g><g class="textbox"><text x="0.1E3" y="0.56688E2" style="fill:black;font-family:Arial Unicode MS;text-anchor:middle;font-weight:400;font-size:12pt;">{:expand=&gt;true, :size=&gt;5}</text></g></g><g class="cell" transform="translate(200, 0)"><g class="cell border"><line x1="0" y1="0" x2="200" y2="0" stroke-width="2" style="stroke:black;"/><line x1="200" y1="0" x2="200" y2="60" stroke-width="2" style="stroke:black;"/><line x1="200" y1="60" x2="0" y2="60" stroke-width="2" style="stroke:black;"/><line x1="0" y1="60" x2="0" y2="0" stroke-width="2" style="stroke:black;"/></g><g class="textbox"><text x="0.1E3" y="0.42288E2" style="fill:black;font-family:Arial Unicode MS;text-anchor:middle;font-weight:400;font-size:12pt;">{:expand=&gt;true, :size=&gt;5,</text><text x="0.1E3" y="0.56688E2" style="fill:black;font-family:Arial Unicode MS;text-anchor:middle;font-weight:400;font-size:12pt;">:linecap=&gt;"round"}</text></g></g><g class="cell" transform="translate(400, 0)"><g class="cell border"><line x1="0" y1="0" x2="200" y2="0" stroke-width="2" style="stroke:black;"/><line x1="200" y1="0" x2="200" y2="60" stroke-width="2" style="stroke:black;"/><line x1="200" y1="60" x2="0" y2="60" stroke-width="2" style="stroke:black;"/><line x1="0" y1="60" x2="0" y2="0" stroke-width="2" style="stroke:black;"/></g><g class="textbox"><text x="0.1E3" y="0.1348800000000001E2" style="fill:black;font-family:Arial Unicode MS;text-anchor:middle;font-weight:400;font-size:12pt;">{:expand=&gt;true, :size=&gt;5,</text><text x="0.1E3" y="0.2788800000000001E2" style="fill:black;font-family:Arial Unicode MS;text-anchor:middle;font-weight:400;font-size:12pt;">:linecap=&gt;"round", :</text><text x="0.1E3" y="0.4228800000000001E2" style="fill:black;font-family:Arial Unicode MS;text-anchor:middle;font-weight:400;font-size:12pt;">x_reposition=&gt;"left", :</text><text x="0.1E3" y="0.5668800000000001E2" style="fill:black;font-family:Arial Unicode MS;text-anchor:middle;font-weight:400;font-size:12pt;">y_reposition=&gt;"top"}</text></g></g></g><g class="row" transform="translate(0, 840)"><g class="cell" transform="translate(0, 0)"><g class="cell border"><line x1="0" y1="0" x2="200" y2="0" stroke-width="1" style="stroke:black;"/><line x1="200" y1="0" x2="200" y2="0.20000000000000000002E3" stroke-width="1" style="stroke:black;"/><line x1="200" y1="0.20000000000000000002E3" x2="0" y2="0.20000000000000000002E3" stroke-width="1" style="stroke:black;"/><line x1="0" y1="0.20000000000000000002E3" x2="0" y2="0" stroke-width="1" style="stroke:black;"/></g><g class="polyline"><polyline points="0,0 5,50 10,0 15,50 20,0 25,50" style="stroke:black;fill:none;stroke-width:5;stroke-linecap:butt;stroke-linejoin:miter;" transform="translate(0, 0)scale(0.3636363636363636364E1, 0.3636363636363636364E1)"/></g></g><g class="cell" transform="translate(200, 0)"><g class="cell border"><line x1="0" y1="0" x2="200" y2="0" stroke-width="1" style="stroke:black;"/><line x1="200" y1="0" x2="200" y2="0.20000000000000000002E3" stroke-width="1" style="stroke:black;"/><line x1="200" y1="0.20000000000000000002E3" x2="0" y2="0.20000000000000000002E3" stroke-width="1" style="stroke:black;"/><line x1="0" y1="0.20000000000000000002E3" x2="0" y2="0" stroke-width="1" style="stroke:black;"/></g><g class="polyline"><polyline points="0,0 5,50 10,0 15,50 20,0 25,50" style="stroke:black;fill:none;stroke-width:5;stroke-linecap:round;stroke-linejoin:miter;" transform="translate(0, 0)scale(0.3636363636363636364E1, 0.3636363636363636364E1)"/></g></g><g class="cell" transform="translate(400, 0)"><g class="cell border"><line x1="0" y1="0" x2="200" y2="0" stroke-width="1" style="stroke:black;"/><line x1="200" y1="0" x2="200" y2="0.20000000000000000002E3" stroke-width="1" style="stroke:black;"/><line x1="200" y1="0.20000000000000000002E3" x2="0" y2="0.20000000000000000002E3" stroke-width="1" style="stroke:black;"/><line x1="0" y1="0.20000000000000000002E3" x2="0" y2="0" stroke-width="1" style="stroke:black;"/></g><g class="polyline"><polyline points="0,0 5,50 10,0 15,50 20,0 25,50" style="stroke:black;fill:none;stroke-width:5;stroke-linecap:round;stroke-linejoin:miter;" transform="translate(0.909090909090909091E1, 0.909090909090909091E1)scale(0.3636363636363636364E1, 0.3636363636363636364E1)"/></g></g></g></g></svg>