<?xml version="1.0" standalone="no"?>
<!DOCTYPE svg PUBLIC "-//W3C//DTD SVG 1.1//EN" "http://www.w3.org/Graphics/SVG/1.1/DTD/svg11.dtd">
<svg width="900" height="1600" version="1.1" xmlns="http://www.w3.org/2000/svg" xmlns:xlink="http://www.w3.org/1999/xlink"><g class="table" transform="translate(10, 10)"><g class="table border"><line x1="0" y1="0" x2="0.7896E3" y2="0" stroke-width="1" style="stroke:black;"/><line x1="0.7896E3" y1="0" x2="0.7896E3" y2="0.2304E3" stroke-width="1" style="stroke:black;"/><line x1="0.7896E3" y1="0.2304E3" x2="0" y2="0.2304E3" stroke-width="1" style="stroke:black;"/><line x1="0" y1="0.2304E3" x2="0" y2="0" stroke-width="1" style="stroke:black;"/></g><g class="row" transform="translate(0, 0)"><g class="row border"><line x1="0" y1="0" x2="0.7896E3" y2="0" stroke-width="1" style="stroke:black;"/><line x1="0.7896E3" y1="0" x2="0.7896E3" y2="0.72E2" stroke-width="1" style="stroke:black;"/><line x1="0.7896E3" y1="0.72E2" x2="0" y2="0.72E2" stroke-width="1" style="stroke:black;"/><line x1="0" y1="0.72E2" x2="0" y2="0" stroke-width="1" style="stroke:black;"/></g><g class="cell" transform="translate(0, 0)"><g class="cell border"><line x1="0" y1="0" x2="0.4896E3" y2="0" stroke-width="1" style="stroke:black;"/><line x1="0.4896E3" y1="0" x2="0.4896E3" y2="0.144E2" stroke-width="1" style="stroke:black;"/><line x1="0.4896E3" y1="0.144E2" x2="0" y2="0.144E2" stroke-width="1" style="stroke:black;"/><line x1="0" y1="0.144E2" x2="0" y2="0" stroke-width="1" style="stroke:black;"/></g><g class="textbox"><text x="0" y="0.11088E2" style="fill:black;font-family:Courier New;text-anchor:start;font-weight:400;font-size:12pt;">A text with unset width will span as long as needed</text></g></g><g class="cell" transform="translate(0.4896E3, 0)"><g class="cell border"><line x1="0" y1="0" x2="100" y2="0" stroke-width="1" style="stroke:black;"/><line x1="100" y1="0" x2="100" y2="0.72E2" stroke-width="1" style="stroke:black;"/><line x1="100" y1="0.72E2" x2="0" y2="0.72E2" stroke-width="1" style="stroke:black;"/><line x1="0" y1="0.72E2" x2="0" y2="0" stroke-width="1" style="stroke:black;"/></g><g class="textbox"><text x="0" y="0.11088E2" style="fill:black;font-family:Courier New;text-anchor:start;font-weight:400;font-size:12pt;">A text</text><text x="0" y="0.25488E2" style="fill:black;font-family:Courier New;text-anchor:start;font-weight:400;font-size:12pt;">with fixed</text><text x="0" y="0.39888E2" style="fill:black;font-family:Courier New;text-anchor:start;font-weight:400;font-size:12pt;">will wrap</text><text x="0" y="0.54288E2" style="fill:black;font-family:Courier New;text-anchor:start;font-weight:400;font-size:12pt;">on a</text><text x="0" y="0.68688E2" style="fill:black;font-family:Courier New;text-anchor:start;font-weight:400;font-size:12pt;">delimiter</text></g></g><g class="cell" transform="translate(0.5896E3, 0)"><g class="cell border"><line x1="0" y1="0" x2="100" y2="0" stroke-width="1" style="stroke:black;"/><line x1="100" y1="0" x2="100" y2="0.72E2" stroke-width="1" style="stroke:black;"/><line x1="100" y1="0.72E2" x2="0" y2="0.72E2" stroke-width="1" style="stroke:black;"/><line x1="0" y1="0.72E2" x2="0" y2="0" stroke-width="1" style="stroke:black;"/></g><g class="textbox"><text x="0" y="0.11088E2" style="fill:black;font-family:Courier New;text-anchor:start;font-weight:400;font-size:12pt;">VeryLongWo</text><text x="0" y="0.25488E2" style="fill:black;font-family:Courier New;text-anchor:start;font-weight:400;font-size:12pt;">rdsAreWrap</text><text x="0" y="0.39888E2" style="fill:black;font-family:Courier New;text-anchor:start;font-weight:400;font-size:12pt;">pedOnAnyCh</text><text x="0" y="0.54288E2" style="fill:black;font-family:Courier New;text-anchor:start;font-weight:400;font-size:12pt;">aracterByD</text><text x="0" y="0.68688E2" style="fill:black;font-family:Courier New;text-anchor:start;font-weight:400;font-size:12pt;">efault</text></g></g></g><g class="row" transform="translate(0, 0.72E2)"><g class="row border"><line x1="0" y1="0" x2="0.7896E3" y2="0" stroke-width="1" style="stroke:black;"/><line x1="0.7896E3" y1="0" x2="0.7896E3" y2="0.1584E3" stroke-width="1" style="stroke:black;"/><line x1="0.7896E3" y1="0.1584E3" x2="0" y2="0.1584E3" stroke-width="1" style="stroke:black;"/><line x1="0" y1="0.1584E3" x2="0" y2="0" stroke-width="1" style="stroke:black;"/></g><g class="cell" transform="translate(0, 0)"><g class="cell border"><line x1="0" y1="0" x2="0.3168E3" y2="0" stroke-width="1" style="stroke:black;"/><line x1="0.3168E3" y1="0" x2="0.3168E3" y2="0.144E2" stroke-width="1" style="stroke:black;"/><line x1="0.3168E3" y1="0.144E2" x2="0" y2="0.144E2" stroke-width="1" style="stroke:black;"/><line x1="0" y1="0.144E2" x2="0" y2="0" stroke-width="1" style="stroke:black;"/></g><g class="textbox"><text x="0" y="0.11088E2" style="fill:black;font-family:Courier New;text-anchor:start;font-weight:400;font-size:12pt;">Redundant whitespaces are omitted</text></g></g><g class="cell" transform="translate(0.4896E3, 0)"><g class="cell border"><line x1="0" y1="0" x2="100" y2="0" stroke-width="1" style="stroke:black;"/><line x1="100" y1="0" x2="100" y2="0.1584E3" stroke-width="1" style="stroke:black;"/><line x1="100" y1="0.1584E3" x2="0" y2="0.1584E3" stroke-width="1" style="stroke:black;"/><line x1="0" y1="0.1584E3" x2="0" y2="0" stroke-width="1" style="stroke:black;"/></g><g class="textbox"><text x="0" y="0.11088E2" style="fill:black;font-family:Courier New;text-anchor:start;font-weight:400;font-size:12pt;">A single</text><text x="0" y="0.25488E2" style="fill:black;font-family:Courier New;text-anchor:start;font-weight:400;font-size:12pt;">delimiter</text><text x="0" y="0.39888E2" style="fill:black;font-family:Courier New;text-anchor:start;font-weight:400;font-size:12pt;">following</text><text x="0" y="0.54288E2" style="fill:black;font-family:Courier New;text-anchor:start;font-weight:400;font-size:12pt;">a word is</text><text x="0" y="0.68688E2" style="fill:black;font-family:Courier New;text-anchor:start;font-weight:400;font-size:12pt;">not</text><text x="0" y="0.8308799999999999E2" style="fill:black;font-family:Courier New;text-anchor:start;font-weight:400;font-size:12pt;">wrapped on</text><text x="0" y="0.9748799999999999E2" style="fill:black;font-family:Courier New;text-anchor:start;font-weight:400;font-size:12pt;">its own.</text><text x="0" y="0.111888E3" style="fill:black;font-family:Courier New;text-anchor:start;font-weight:400;font-size:12pt;">Example:</text><text x="0" y="0.126288E3" style="fill:black;font-family:Courier New;text-anchor:start;font-weight:400;font-size:12pt;">wrap this.</text><text x="0" y="0.140688E3" style="fill:black;font-family:Courier New;text-anchor:start;font-weight:400;font-size:12pt;">wrapp</text><text x="0" y="0.155088E3" style="fill:black;font-family:Courier New;text-anchor:start;font-weight:400;font-size:12pt;">this.</text></g></g><g class="cell" transform="translate(0.5896E3, 0)"><g class="cell border"><line x1="0" y1="0" x2="200" y2="0" stroke-width="1" style="stroke:black;"/><line x1="200" y1="0" x2="200" y2="0.144E2" stroke-width="1" style="stroke:black;"/><line x1="200" y1="0.144E2" x2="0" y2="0.144E2" stroke-width="1" style="stroke:black;"/><line x1="0" y1="0.144E2" x2="0" y2="0" stroke-width="1" style="stroke:black;"/></g><g class="textbox"><text x="0" y="0.11088E2" style="fill:black;font-family:Courier New;text-anchor:start;font-weight:400;font-size:12pt;">Truncation is als...</text></g></g></g></g></svg>