<?xml version="1.0" standalone="no"?>
<!DOCTYPE svg PUBLIC "-//W3C//DTD SVG 1.1//EN" "http://www.w3.org/Graphics/SVG/1.1/DTD/svg11.dtd">
<svg width="900" height="500" version="1.1" xmlns="http://www.w3.org/2000/svg" xmlns:xlink="http://www.w3.org/1999/xlink"><g class="table" transform="translate(10, 10)"><g class="table border"><line x1="0" y1="0" x2="0.77332E3" y2="0" stroke-width="1" style="stroke:black;"/><line x1="0.77332E3" y1="0" x2="0.77332E3" y2="0.1872E3" stroke-width="1" style="stroke:black;"/><line x1="0.77332E3" y1="0.1872E3" x2="0" y2="0.1872E3" stroke-width="1" style="stroke:black;"/><line x1="0" y1="0.1872E3" x2="0" y2="0" stroke-width="1" style="stroke:black;"/></g><g class="row" transform="translate(0, 0)"><g class="row border"><line x1="0" y1="0" x2="0.77332E3" y2="0" stroke-width="1" style="stroke:black;"/><line x1="0.77332E3" y1="0" x2="0.77332E3" y2="0.576E2" stroke-width="1" style="stroke:black;"/><line x1="0.77332E3" y1="0.576E2" x2="0" y2="0.576E2" stroke-width="1" style="stroke:black;"/><line x1="0" y1="0.576E2" x2="0" y2="0" stroke-width="1" style="stroke:black;"/></g><g class="cell" transform="translate(0, 0)"><g class="cell border"><line x1="0" y1="0" x2="0.37332E3" y2="0" stroke-width="1" style="stroke:black;"/><line x1="0.37332E3" y1="0" x2="0.37332E3" y2="0.144E2" stroke-width="1" style="stroke:black;"/><line x1="0.37332E3" y1="0.144E2" x2="0" y2="0.144E2" stroke-width="1" style="stroke:black;"/><line x1="0" y1="0.144E2" x2="0" y2="0" stroke-width="1" style="stroke:black;"/></g><g class="textbox"><text x="0" y="0.11088E2" style="fill:black;font-family:Courier New;text-anchor:start;font-weight:400;font-size:12px;">A text with unset width will span as long as needed</text></g></g><g class="cell" transform="translate(0.37332E3, 0)"><g class="cell border"><line x1="0" y1="0" x2="200" y2="0" stroke-width="1" style="stroke:black;"/><line x1="200" y1="0" x2="200" y2="0.432E2" stroke-width="1" style="stroke:black;"/><line x1="200" y1="0.432E2" x2="0" y2="0.432E2" stroke-width="1" style="stroke:black;"/><line x1="0" y1="0.432E2" x2="0" y2="0" stroke-width="1" style="stroke:black;"/></g><g class="textbox"><text x="0" y="0.11088E2" style="fill:black;font-family:Courier New;text-anchor:start;font-weight:400;font-size:12px;">A text with fixed width</text><text x="0" y="0.25488E2" style="fill:black;font-family:Courier New;text-anchor:start;font-weight:400;font-size:12px;">will wrap on a delimiter.</text><text x="0" y="0.39888E2" style="fill:black;font-family:Courier New;text-anchor:start;font-weight:400;font-size:12px;">Extra spacing is removed.</text></g></g><g class="cell" transform="translate(0.57332E3, 0)"><g class="cell border"><line x1="0" y1="0" x2="100" y2="0" stroke-width="1" style="stroke:black;"/><line x1="100" y1="0" x2="100" y2="0.576E2" stroke-width="1" style="stroke:black;"/><line x1="100" y1="0.576E2" x2="0" y2="0.576E2" stroke-width="1" style="stroke:black;"/><line x1="0" y1="0.576E2" x2="0" y2="0" stroke-width="1" style="stroke:black;"/></g><g class="textbox"><text x="0" y="0.1108800000000001E2" style="fill:black;font-family:Courier New;text-anchor:start;font-weight:400;font-size:12px;">VeryLongWords</text><text x="0" y="0.2548800000000001E2" style="fill:black;font-family:Courier New;text-anchor:start;font-weight:400;font-size:12px;">AreWrappedOnA</text><text x="0" y="0.3988800000000001E2" style="fill:black;font-family:Courier New;text-anchor:start;font-weight:400;font-size:12px;">nyCharacterBy</text><text x="0" y="0.5428800000000001E2" style="fill:black;font-family:Courier New;text-anchor:start;font-weight:400;font-size:12px;">Default</text></g></g></g><g class="row" transform="translate(0, 0.576E2)"><g class="row border"><line x1="0" y1="0" x2="0.77332E3" y2="0" stroke-width="1" style="stroke:black;"/><line x1="0.77332E3" y1="0" x2="0.77332E3" y2="0.1296E3" stroke-width="1" style="stroke:black;"/><line x1="0.77332E3" y1="0.1296E3" x2="0" y2="0.1296E3" stroke-width="1" style="stroke:black;"/><line x1="0" y1="0.1296E3" x2="0" y2="0" stroke-width="1" style="stroke:black;"/></g><g class="cell" transform="translate(0, 0)"><g class="cell border"><line x1="0" y1="0" x2="100" y2="0" stroke-width="1" style="stroke:black;"/><line x1="100" y1="0" x2="100" y2="0.1296E3" stroke-width="1" style="stroke:black;"/><line x1="100" y1="0.1296E3" x2="0" y2="0.1296E3" stroke-width="1" style="stroke:black;"/><line x1="0" y1="0.1296E3" x2="0" y2="0" stroke-width="1" style="stroke:black;"/></g><g class="textbox"><text x="0" y="0.11088E2" style="fill:black;font-family:Courier New;text-anchor:start;font-weight:400;font-size:12px;">A single</text><text x="0" y="0.25488E2" style="fill:black;font-family:Courier New;text-anchor:start;font-weight:400;font-size:12px;">delimiter</text><text x="0" y="0.39888E2" style="fill:black;font-family:Courier New;text-anchor:start;font-weight:400;font-size:12px;">following a</text><text x="0" y="0.54288E2" style="fill:black;font-family:Courier New;text-anchor:start;font-weight:400;font-size:12px;">word is not</text><text x="0" y="0.68688E2" style="fill:black;font-family:Courier New;text-anchor:start;font-weight:400;font-size:12px;">wrapped on</text><text x="0" y="0.8308799999999999E2" style="fill:black;font-family:Courier New;text-anchor:start;font-weight:400;font-size:12px;">its own.</text><text x="0" y="0.9748799999999999E2" style="fill:black;font-family:Courier New;text-anchor:start;font-weight:400;font-size:12px;">Example: wrap</text><text x="0" y="0.111888E3" style="fill:black;font-family:Courier New;text-anchor:start;font-weight:400;font-size:12px;">this. wrapp</text><text x="0" y="0.126288E3" style="fill:black;font-family:Courier New;text-anchor:start;font-weight:400;font-size:12px;">this.</text></g></g><g class="cell" transform="translate(0.37332E3, 0)"><g class="cell border"><line x1="0" y1="0" x2="200" y2="0" stroke-width="1" style="stroke:black;"/><line x1="200" y1="0" x2="200" y2="0.144E2" stroke-width="1" style="stroke:black;"/><line x1="200" y1="0.144E2" x2="0" y2="0.144E2" stroke-width="1" style="stroke:black;"/><line x1="0" y1="0.144E2" x2="0" y2="0" stroke-width="1" style="stroke:black;"/></g><g class="textbox"><text x="0" y="0.11088E2" style="fill:black;font-family:Courier New;text-anchor:start;font-weight:400;font-size:12px;">Truncation is also an op...</text></g></g><g class="cell" transform="translate(0.57332E3, 0)"><g class="cell border"><line x1="0" y1="0" x2="200" y2="0" stroke-width="1" style="stroke:black;"/><line x1="200" y1="0" x2="200" y2="0.144E2" stroke-width="1" style="stroke:black;"/><line x1="200" y1="0.144E2" x2="0" y2="0.144E2" stroke-width="1" style="stroke:black;"/><line x1="0" y1="0.144E2" x2="0" y2="0" stroke-width="1" style="stroke:black;"/></g><g class="textbox"><text x="0" y="0.11088E2" style="fill:black;font-family:Courier New;text-anchor:start;font-weight:400;font-size:12px;">Overflow ignores any width restrictions</text></g></g></g></g></svg>