<?xml version="1.0" standalone="no"?>
<!DOCTYPE svg PUBLIC "-//W3C//DTD SVG 1.1//EN" "http://www.w3.org/Graphics/SVG/1.1/DTD/svg11.dtd">
<svg width="900" height="1600" version="1.1" xmlns="http://www.w3.org/2000/svg" xmlns:xlink="http://www.w3.org/1999/xlink"><g class="table" transform="translate(10, 10)"><g class="row" transform="translate(0, 0)"><g class="cell" transform="translate(0, 0)"><g class="table"><g class="row" transform="translate(0, 0)"><g class="cell" transform="translate(0, 0)"><g class="textbox"><text x="0" y="0.11088E2" style="fill:black;font-family:Arial Unicode MS;text-anchor:start;font-weight:400;font-size:12pt;">subcell</text></g></g><g class="cell" transform="translate(0.5292E2, 0)"><g class="textbox"><text x="0" y="0.11088E2" style="fill:black;font-family:Arial Unicode MS;text-anchor:start;font-weight:400;font-size:12pt;">subcell</text></g></g><g class="cell" transform="translate(0.10584E3, 0)"><g class="textbox"><text x="0" y="0.11088E2" style="fill:black;font-family:Arial Unicode MS;text-anchor:start;font-weight:400;font-size:12pt;">subcell</text></g></g></g><g class="row" transform="translate(0, 0.144E2)"><g class="cell" transform="translate(0, 0)"><g class="textbox"><text x="0" y="0.11088E2" style="fill:black;font-family:Arial Unicode MS;text-anchor:start;font-weight:400;font-size:12pt;">subcell</text></g></g><g class="cell" transform="translate(0.5292E2, 0)"><g class="textbox"><text x="0" y="0.11088E2" style="fill:black;font-family:Arial Unicode MS;text-anchor:start;font-weight:400;font-size:12pt;">subcell</text></g></g><g class="cell" transform="translate(0.10584E3, 0)"><g class="textbox"><text x="0" y="0.11088E2" style="fill:black;font-family:Arial Unicode MS;text-anchor:start;font-weight:400;font-size:12pt;">subcell</text></g></g></g></g></g><g class="cell" transform="translate(0.15876E3, 0)"><g class="textbox"><text x="0" y="0.11088E2" style="fill:black;font-family:Courier New;text-anchor:start;font-weight:400;font-size:12pt;">parent cell</text></g></g></g><g class="row" transform="translate(0, 0.288E2)"><g class="cell" transform="translate(0, 0)"><g class="textbox"><text x="0" y="0.11088E2" style="fill:black;font-family:Courier New;text-anchor:start;font-weight:400;font-size:12pt;">parent cell</text></g></g><g class="cell" transform="translate(0.15876E3, 0)"><g class="table"><g class="row" transform="translate(0, 0)"><g class="cell" transform="translate(0, 0)"><g class="textbox"><text x="0" y="0.11088E2" style="fill:black;font-family:Arial Unicode MS;text-anchor:start;font-weight:400;font-size:12pt;">subcell</text></g></g><g class="cell" transform="translate(0.5292E2, 0)"><g class="textbox"><text x="0" y="0.11088E2" style="fill:black;font-family:Arial Unicode MS;text-anchor:start;font-weight:400;font-size:12pt;">subcell</text></g></g><g class="cell" transform="translate(0.10584E3, 0)"><g class="textbox"><text x="0" y="0.11088E2" style="fill:black;font-family:Arial Unicode MS;text-anchor:start;font-weight:400;font-size:12pt;">subcell</text></g></g></g></g></g></g></g></svg>