<?xml version="1.0" standalone="no"?>
<!DOCTYPE svg PUBLIC "-//W3C//DTD SVG 1.1//EN" "http://www.w3.org/Graphics/SVG/1.1/DTD/svg11.dtd">
<svg width="900" height="1600" version="1.1" xmlns="http://www.w3.org/2000/svg" xmlns:xlink="http://www.w3.org/1999/xlink"><g class="table" transform="translate(10, 10)"><g class="row" transform="translate(0, 0)"><g class="row border"><line x1="0" y1="0" x2="300" y2="0" stroke-width="1" style="stroke:black;"/><line x1="300" y1="0" x2="300" y2="0.192E2" stroke-width="1" style="stroke:black;"/><line x1="300" y1="0.192E2" x2="0" y2="0.192E2" stroke-width="1" style="stroke:black;"/><line x1="0" y1="0.192E2" x2="0" y2="0" stroke-width="1" style="stroke:black;"/></g><g class="cell" transform="translate(0, 0)"><g class="textbox"><text x="0" y="0.14784E2" style="fill:black;font-family:Courier New;text-anchor:start;font-weight:bold;font-size:16pt;">foo</text></g></g><g class="cell" transform="translate(150, 0)"><g class="textbox"><text x="0" y="0.14784E2" style="fill:black;font-family:Courier New;text-anchor:start;font-weight:bold;font-size:16pt;">bar</text></g></g></g><g class="row" transform="translate(0, 0.192E2)"><g class="row border"><line x1="0" y1="0" x2="300" y2="0" stroke-width="1" style="stroke:black;"/><line x1="300" y1="0" x2="300" y2="0.216E2" stroke-width="1" style="stroke:black;"/><line x1="300" y1="0.216E2" x2="0" y2="0.216E2" stroke-width="1" style="stroke:black;"/><line x1="0" y1="0.216E2" x2="0" y2="0" stroke-width="1" style="stroke:black;"/></g><g class="cell" transform="translate(0, 0)"><g class="textbox"><text x="0" y="0.16632E2" style="fill:black;font-family:Courier New;text-anchor:start;font-weight:400;font-style:italic;font-size:18pt;">baz</text></g></g><g class="cell" transform="translate(150, 0)"><g class="textbox"><text x="0" y="0.16632E2" style="fill:black;font-family:Courier New;text-anchor:start;font-weight:400;font-style:italic;font-size:18pt;">qux</text></g></g></g><g class="row" transform="translate(0, 0.408E2)"><g class="row border"><line x1="0" y1="0" x2="300" y2="0" stroke-width="1" style="stroke:black;"/><line x1="300" y1="0" x2="300" y2="0.11E2" stroke-width="1" style="stroke:black;"/><line x1="300" y1="0.11E2" x2="0" y2="0.11E2" stroke-width="1" style="stroke:black;"/><line x1="0" y1="0.11E2" x2="0" y2="0" stroke-width="1" style="stroke:black;"/></g><g class="cell" transform="translate(0, 0)"><g class="polyline"><polyline points="0,0 10,10 20,0 30,10 40,0 50,10 60,0 70,10 80,0 90,10" style="stroke:black;fill:none;stroke-width:1;stroke-linecap:butt;stroke-linejoin:miter;" transform="translate(0, 0)scale(1, 1)"/></g></g><g class="cell" transform="translate(150, 0)"><g class="polyline"><polyline points="0,0 10,10 20,0 30,10 40,0 50,10 60,0 70,10 80,0 90,10" style="stroke:black;fill:none;stroke-width:1;stroke-linecap:butt;stroke-linejoin:miter;" transform="translate(0, 0)scale(1, 1)"/></g></g></g></g></svg>