<?xml version="1.0" standalone="no"?>
<!DOCTYPE svg PUBLIC "-//W3C//DTD SVG 1.1//EN" "http://www.w3.org/Graphics/SVG/1.1/DTD/svg11.dtd">
<svg width="900" height="1600" version="1.1" xmlns="http://www.w3.org/2000/svg" xmlns:xlink="http://www.w3.org/1999/xlink"><g class="table" transform="translate(10, 10)"><g class="table border"><line x1="0" y1="0" x2="0.3E3" y2="0" stroke-width="1" style="stroke:black;"/><line x1="0.3E3" y1="0" x2="0.3E3" y2="150" stroke-width="1" style="stroke:black;"/><line x1="0.3E3" y1="150" x2="0" y2="150" stroke-width="1" style="stroke:black;"/><line x1="0" y1="150" x2="0" y2="0" stroke-width="1" style="stroke:black;"/></g><g class="row" transform="translate(0, 0)"><g class="row border"><line x1="0" y1="0" x2="0.3E3" y2="0" stroke-width="1" style="stroke:black;"/><line x1="0.3E3" y1="0" x2="0.3E3" y2="50" stroke-width="1" style="stroke:black;"/><line x1="0.3E3" y1="50" x2="0" y2="50" stroke-width="1" style="stroke:black;"/><line x1="0" y1="50" x2="0" y2="0" stroke-width="1" style="stroke:black;"/></g><g class="cell" transform="translate(0, 0)"><g class="textbox"><text x="0.5E2" y="0.30184E2" style="fill:black;font-family:Courier New;text-anchor:middle;font-weight:400;font-size:16pt;">foo</text></g></g><g class="cell" transform="translate(0.1E3, 0)"><g class="textbox"><text x="0.5E2" y="0.30184E2" style="fill:black;font-family:Courier New;text-anchor:middle;font-weight:400;font-size:16pt;">bar</text></g></g><g class="cell" transform="translate(0.2E3, 0)"><g class="textbox"><text x="0.5E2" y="0.30184E2" style="fill:black;font-family:Courier New;text-anchor:middle;font-weight:400;font-size:16pt;">baz</text></g></g></g><g class="row" transform="translate(0, 50)"><g class="row border"><line x1="0" y1="0" x2="0.3E3" y2="0" stroke-width="1" style="stroke:black;"/><line x1="0.3E3" y1="0" x2="0.3E3" y2="50" stroke-width="1" style="stroke:black;"/><line x1="0.3E3" y1="50" x2="0" y2="50" stroke-width="1" style="stroke:black;"/><line x1="0" y1="50" x2="0" y2="0" stroke-width="1" style="stroke:black;"/></g><g class="cell" transform="translate(0, 0)"><g class="textbox"><text x="0.5E2" y="0.30184E2" style="fill:black;font-family:Courier New;text-anchor:middle;font-weight:400;font-size:16pt;">qux</text></g></g><g class="cell" transform="translate(0.1E3, 0)"><g class="textbox"><text x="0.5E2" y="0.30184E2" style="fill:black;font-family:Courier New;text-anchor:middle;font-weight:400;font-size:16pt;">fred</text></g></g><g class="cell" transform="translate(0.2E3, 0)"><g class="textbox"><text x="0.5E2" y="0.30184E2" style="fill:black;font-family:Courier New;text-anchor:middle;font-weight:400;font-size:16pt;">thud</text></g></g></g><g class="row" transform="translate(0, 100)"><g class="row border"><line x1="0" y1="0" x2="0.3E3" y2="0" stroke-width="1" style="stroke:black;"/><line x1="0.3E3" y1="0" x2="0.3E3" y2="50" stroke-width="1" style="stroke:black;"/><line x1="0.3E3" y1="50" x2="0" y2="50" stroke-width="1" style="stroke:black;"/><line x1="0" y1="50" x2="0" y2="0" stroke-width="1" style="stroke:black;"/></g><g class="cell" transform="translate(0, 0)"><g class="textbox"><text x="0.5E2" y="0.30184E2" style="fill:black;font-family:Courier New;text-anchor:middle;font-weight:400;font-size:16pt;">wibble</text></g></g><g class="cell" transform="translate(0.1E3, 0)"><g class="textbox"><text x="0.5E2" y="0.30184E2" style="fill:black;font-family:Courier New;text-anchor:middle;font-weight:400;font-size:16pt;">wobble</text></g></g><g class="cell" transform="translate(0.2E3, 0)"><g class="textbox"><text x="0.5E2" y="0.30184E2" style="fill:black;font-family:Courier New;text-anchor:middle;font-weight:400;font-size:16pt;">wubble</text></g></g></g></g></svg>